<svg width="24" height="24" viewBox="0 0 24 24" fill="none" xmlns="http://www.w3.org/2000/svg">
<path d="M12.7408 18.4041L15.3055 15.8394C15.6481 15.4968 16.1871 15.4491 16.5846 15.7263L20.1353 18.2028C20.6459 18.5589 20.7106 19.2899 20.2704 19.7301L19.8841 20.1164C19.1739 20.8266 18.1547 21.1343 17.1986 20.8265C15.1336 20.1618 11.3767 18.6184 8.26175 15.5035C5.14678 12.3885 3.6034 8.63158 2.93871 6.56663C2.63093 5.61048 2.93859 4.59133 3.64885 3.88107L4.03512 3.49481C4.47529 3.05464 5.20634 3.11928 5.56244 3.62986L8.03888 7.1806C8.3161 7.57807 8.26844 8.1171 7.92578 8.45976L5.36113 11.0244" stroke="#F2F2F2" stroke-linecap="round"/>
</svg>
