<svg width="30" height="30" viewBox="0 0 30 30" fill="none" xmlns="http://www.w3.org/2000/svg">
<path d="M15.9259 23.0046L19.2797 19.6507C19.6224 19.3081 20.1614 19.2604 20.5589 19.5376L25.4139 22.9237C25.9245 23.2798 25.9891 24.0109 25.5489 24.4511L24.5708 25.4292C23.8605 26.1395 22.8409 26.4462 21.8803 26.1526C19.4036 25.3956 14.4217 23.4734 10.3271 19.3788C6.23248 15.2842 4.3103 10.3023 3.55332 7.82559C3.25972 6.86499 3.56641 5.84538 4.27667 5.13512L5.25485 4.15695C5.69502 3.71678 6.42606 3.78142 6.78217 4.292L10.1683 9.14699C10.4455 9.54446 10.3978 10.0835 10.0552 10.4262L6.70129 13.78" stroke="#219653" stroke-width="2" stroke-linecap="round"/>
</svg>
