<svg width="201" height="233" viewBox="0 0 201 233" fill="none" xmlns="http://www.w3.org/2000/svg">
<g filter="url(#filter0_d)">
<path fill-rule="evenodd" clip-rule="evenodd" d="M26.3736 129.732C24.4152 125.771 26.0258 120.979 29.9864 119.02C40.6558 113.745 60.9488 103.71 74.7336 96.8939C94.1983 87.269 104.11 41.9946 104.11 41.9946L152.234 139.318C152.234 139.318 110.24 119.71 90.7751 129.335C76.9903 136.151 56.6973 146.186 46.0279 151.462C42.0673 153.42 37.2816 151.791 35.3232 147.83L26.3736 129.732Z" fill="white" stroke="#219653" stroke-width="4" stroke-linejoin="round"/>
<path fill-rule="evenodd" clip-rule="evenodd" d="M58.334 145.376L90.5603 177.889L116.513 165.056L84.2869 132.543L58.334 145.376Z" fill="white" stroke="#219653" stroke-width="4" stroke-linejoin="round"/>
<path d="M68.2456 100.102L84.2871 132.543" stroke="#219653" stroke-width="4"/>
</g>
<defs>
<filter id="filter0_d" x="-62" y="-26" width="292.717" height="292.717" filterUnits="userSpaceOnUse" color-interpolation-filters="sRGB">
<feFlood flood-opacity="0" result="BackgroundImageFix"/>
<feColorMatrix in="SourceAlpha" type="matrix" values="0 0 0 0 0 0 0 0 0 0 0 0 0 0 0 0 0 0 127 0"/>
<feOffset dy="4"/>
<feGaussianBlur stdDeviation="15"/>
<feColorMatrix type="matrix" values="0 0 0 0 0.129412 0 0 0 0 0.588235 0 0 0 0 0.32549 0 0 0 0.2 0"/>
<feBlend mode="normal" in2="BackgroundImageFix" result="effect1_dropShadow"/>
<feBlend mode="normal" in="SourceGraphic" in2="effect1_dropShadow" result="shape"/>
</filter>
</defs>
</svg>
