<svg width="50" height="50" viewBox="0 0 50 50" fill="none" xmlns="http://www.w3.org/2000/svg">
<path d="M31.4815 17.5926H18.5185C18.2729 17.5926 18.0374 17.6901 17.8638 17.8638C17.6901 18.0374 17.5926 18.2729 17.5926 18.5185V31.4815C17.5926 31.7271 17.6901 31.9626 17.8638 32.1362C18.0374 32.3099 18.2729 32.4074 18.5185 32.4074H31.4815C31.7271 32.4074 31.9626 32.3099 32.1362 32.1362C32.3099 31.9626 32.4074 31.7271 32.4074 31.4815V18.5185C32.4074 18.2729 32.3099 18.0374 32.1362 17.8638C31.9626 17.6901 31.7271 17.5926 31.4815 17.5926ZM30.5556 30.5556H19.4444V19.4444H30.5556V30.5556ZM49.0741 29.6296H44.4444V20.3704H49.0741C49.3196 20.3704 49.5552 20.2728 49.7288 20.0992C49.9024 19.9255 50 19.69 50 19.4444C50 19.1989 49.9024 18.9634 49.7288 18.7897C49.5552 18.6161 49.3196 18.5185 49.0741 18.5185H44.4444V8.33333C44.4436 7.59687 44.1507 6.89079 43.63 6.37003C43.1092 5.84927 42.4031 5.55635 41.6667 5.55556H31.4815V0.925926C31.4815 0.680355 31.3839 0.444842 31.2103 0.271198C31.0366 0.0975528 30.8011 0 30.5556 0C30.31 0 30.0745 0.0975528 29.9008 0.271198C29.7272 0.444842 29.6296 0.680355 29.6296 0.925926V5.55556H20.3704V0.925926C20.3704 0.680355 20.2728 0.444842 20.0992 0.271198C19.9255 0.0975528 19.69 0 19.4444 0C19.1989 0 18.9634 0.0975528 18.7897 0.271198C18.6161 0.444842 18.5185 0.680355 18.5185 0.925926V5.55556H8.33333C7.59687 5.55635 6.89079 5.84927 6.37003 6.37003C5.84927 6.89079 5.55635 7.59687 5.55556 8.33333V18.5185H0.925926C0.680355 18.5185 0.444842 18.6161 0.271198 18.7897C0.0975528 18.9634 0 19.1989 0 19.4444C0 19.69 0.0975528 19.9255 0.271198 20.0992C0.444842 20.2728 0.680355 20.3704 0.925926 20.3704H5.55556V29.6296H0.925926C0.680355 29.6296 0.444842 29.7272 0.271198 29.9008C0.0975528 30.0745 0 30.31 0 30.5556C0 30.8011 0.0975528 31.0366 0.271198 31.2103C0.444842 31.3839 0.680355 31.4815 0.925926 31.4815H5.55556V41.6667C5.55635 42.4031 5.84927 43.1092 6.37003 43.63C6.89079 44.1507 7.59687 44.4436 8.33333 44.4444H18.5185V49.0741C18.5185 49.3196 18.6161 49.5552 18.7897 49.7288C18.9634 49.9024 19.1989 50 19.4444 50C19.69 50 19.9255 49.9024 20.0992 49.7288C20.2728 49.5552 20.3704 49.3196 20.3704 49.0741V44.4444H29.6296V49.0741C29.6296 49.3196 29.7272 49.5552 29.9008 49.7288C30.0745 49.9024 30.31 50 30.5556 50C30.8011 50 31.0366 49.9024 31.2103 49.7288C31.3839 49.5552 31.4815 49.3196 31.4815 49.0741V44.4444H41.6667C42.4031 44.4436 43.1092 44.1507 43.63 43.63C44.1507 43.1092 44.4436 42.4031 44.4444 41.6667V31.4815H49.0741C49.3196 31.4815 49.5552 31.3839 49.7288 31.2103C49.9024 31.0366 50 30.8011 50 30.5556C50 30.31 49.9024 30.0745 49.7288 29.9008C49.5552 29.7272 49.3196 29.6296 49.0741 29.6296ZM42.5926 41.6667C42.5923 41.9122 42.4947 42.1475 42.3211 42.3211C42.1475 42.4947 41.9122 42.5923 41.6667 42.5926H8.33333C8.08784 42.5923 7.85247 42.4947 7.67887 42.3211C7.50528 42.1475 7.40765 41.9122 7.40741 41.6667V8.33333C7.40765 8.08784 7.50528 7.85247 7.67887 7.67887C7.85247 7.50528 8.08784 7.40765 8.33333 7.40741H41.6667C41.9122 7.40765 42.1475 7.50528 42.3211 7.67887C42.4947 7.85247 42.5923 8.08784 42.5926 8.33333V41.6667Z" fill="#219653"/>
</svg>
